<svg width="32px" height="32px" viewBox="0 0 60 60" xmlns="http://www.w3.org/2000/svg" fill="#ffffff"><g id="SVGRepo_bgCarrier" stroke-width="0"></g><g id="SVGRepo_tracerCarrier" stroke-linecap="round" stroke-linejoin="round"></g><g id="SVGRepo_iconCarrier"><rect fill="#ffffff" height="60" rx="10" width="60"></rect><rect fill="#7ac9f0" height="12" width="12" x="8" y="8"></rect><path d="M20,21.5H8A1.5,1.5,0,0,1,6.5,20V8A1.5,1.5,0,0,1,8,6.5H20A1.5,1.5,0,0,1,21.5,8V20A1.5,1.5,0,0,1,20,21.5Zm-10.5-3h9v-9h-9Z" fill="#38393d"></path><rect fill="#38393d" height="4" rx="1" width="4" x="12" y="12"></rect><rect fill="#7ac9f0" height="12" width="12" x="40" y="8"></rect><path d="M52,21.5H40A1.5,1.5,0,0,1,38.5,20V8A1.5,1.5,0,0,1,40,6.5H52A1.5,1.5,0,0,1,53.5,8V20A1.5,1.5,0,0,1,52,21.5Zm-10.5-3h9v-9h-9Z" fill="#38393d"></path><rect fill="#38393d" height="4" rx="1" width="4" x="44" y="12"></rect><rect fill="#7ac9f0" height="12" width="12" x="8" y="40"></rect><path d="M20,53.5H8A1.5,1.5,0,0,1,6.5,52V40A1.5,1.5,0,0,1,8,38.5H20A1.5,1.5,0,0,1,21.5,40V52A1.5,1.5,0,0,1,20,53.5Zm-10.5-3h9v-9h-9Z" fill="#38393d"></path><rect fill="#38393d" height="4" rx="1" width="4" x="12" y="44"></rect><path d="M28,21.5H26A1.5,1.5,0,0,1,24.5,20V8a1.5,1.5,0,0,1,3,0V18.5H28a1.5,1.5,0,0,1,0,3Z" fill="#38393d"></path><path d="M34,9.5H32a1.5,1.5,0,0,1,0-3h2a1.5,1.5,0,0,1,0,3Z" fill="#38393d"></path><path d="M34,27.5H26a1.5,1.5,0,0,1,0-3h6.5v-9H32a1.5,1.5,0,0,1,0-3h2A1.5,1.5,0,0,1,35.5,14V26A1.5,1.5,0,0,1,34,27.5Z" fill="#38393d"></path><path d="M34,53.5A1.5,1.5,0,0,1,32.5,52V41.5H32a1.5,1.5,0,0,1,0-3h2A1.5,1.5,0,0,1,35.5,40V52A1.5,1.5,0,0,1,34,53.5Z" fill="#38393d"></path><path d="M28,53.5H26a1.5,1.5,0,0,1,0-3h2a1.5,1.5,0,0,1,0,3Z" fill="#38393d"></path><path d="M28,47.5H26A1.5,1.5,0,0,1,24.5,46V34A1.5,1.5,0,0,1,26,32.5h8a1.5,1.5,0,0,1,0,3H27.5v9H28a1.5,1.5,0,0,1,0,3Z" fill="#38393d"></path><path d="M20,35.5H8a1.5,1.5,0,0,1,0-3H18.5V32a1.5,1.5,0,0,1,3,0v2A1.5,1.5,0,0,1,20,35.5Z" fill="#38393d"></path><path d="M8,29.5A1.5,1.5,0,0,1,6.5,28V26a1.5,1.5,0,0,1,3,0v2A1.5,1.5,0,0,1,8,29.5Z" fill="#38393d"></path><path d="M26,35.5A1.5,1.5,0,0,1,24.5,34V27.5h-9V28a1.5,1.5,0,0,1-3,0V26A1.5,1.5,0,0,1,14,24.5H26A1.5,1.5,0,0,1,27.5,26v8A1.5,1.5,0,0,1,26,35.5Z" fill="#38393d"></path><path d="M40,29.5A1.5,1.5,0,0,1,38.5,28V26A1.5,1.5,0,0,1,40,24.5H52a1.5,1.5,0,0,1,0,3H41.5V28A1.5,1.5,0,0,1,40,29.5Z" fill="#38393d"></path><path d="M52,35.5A1.5,1.5,0,0,1,50.5,34V32a1.5,1.5,0,0,1,3,0v2A1.5,1.5,0,0,1,52,35.5Z" fill="#38393d"></path><path d="M46,35.5H34A1.5,1.5,0,0,1,32.5,34V26a1.5,1.5,0,0,1,3,0v6.5h9V32a1.5,1.5,0,0,1,3,0v2A1.5,1.5,0,0,1,46,35.5Z" fill="#38393d"></path><path d="M40,47.5A1.5,1.5,0,0,1,38.5,46V40A1.5,1.5,0,0,1,40,38.5H52a1.5,1.5,0,0,1,0,3H41.5V46A1.5,1.5,0,0,1,40,47.5Z" fill="#38393d"></path><path d="M52,53.5A1.5,1.5,0,0,1,50.5,52V46a1.5,1.5,0,0,1,3,0v6A1.5,1.5,0,0,1,52,53.5Z" fill="#38393d"></path><path d="M46,53.5H34A1.5,1.5,0,0,1,32.5,52V44a1.5,1.5,0,0,1,3,0v6.5h9V46a1.5,1.5,0,0,1,3,0v6A1.5,1.5,0,0,1,46,53.5Z" fill="#38393d"></path><path d="M8,21.5A1.5,1.5,0,0,1,6.5,20V8A1.5,1.5,0,0,1,8,6.5H20a1.5,1.5,0,0,1,0,3H9.5V20A1.5,1.5,0,0,1,8,21.5Z" fill="#38393d"></path><path d="M8,53.5A1.5,1.5,0,0,1,6.5,52V40A1.5,1.5,0,0,1,8,38.5H20a1.5,1.5,0,0,1,0,3H9.5V52A1.5,1.5,0,0,1,8,53.5Z" fill="#38393d"></path><path d="M40,21.5A1.5,1.5,0,0,1,38.5,20V8A1.5,1.5,0,0,1,40,6.5H52a1.5,1.5,0,0,1,0,3H41.5V20A1.5,1.5,0,0,1,40,21.5Z" fill="#38393d"></path></g></svg>